<mxfile host="app.diagrams.net" modified="2020-03-29T15:23:32.628Z" agent="Mozilla/5.0 (Windows NT 10.0; WOW64) AppleWebKit/537.36 (KHTML, like Gecko) Chrome/80.0.3987.122 YaBrowser/20.3.0.1223 Yowser/2.5 Safari/537.36" etag="1lbO3cv5aD-oTL9L0wEW" version="12.9.3" type="github">
  <diagram id="04NFNXWc2lqI_j0TzdUz" name="Страница 1">
    <mxGraphModel dx="1976" dy="1848" grid="1" gridSize="10" guides="1" tooltips="1" connect="1" arrows="1" fold="1" page="1" pageScale="1" pageWidth="827" pageHeight="1169" background="#333333" math="0" shadow="0">
      <root>
        <mxCell id="0" />
        <mxCell id="1" parent="0" />
        <mxCell id="EEbd4EJKothGvuQdx9ed-5" value="" style="edgeStyle=orthogonalEdgeStyle;rounded=0;orthogonalLoop=1;jettySize=auto;html=1;endArrow=none;endFill=0;strokeWidth=2;fontColor=#FFFFFF;labelBackgroundColor=none;strokeColor=#19FFBA;fontStyle=1;fontFamily=Georgia;fontSize=13;" parent="1" source="EEbd4EJKothGvuQdx9ed-1" target="EEbd4EJKothGvuQdx9ed-2" edge="1">
          <mxGeometry relative="1" as="geometry" />
        </mxCell>
        <mxCell id="EEbd4EJKothGvuQdx9ed-6" value="" style="edgeStyle=orthogonalEdgeStyle;rounded=0;orthogonalLoop=1;jettySize=auto;html=1;endArrow=none;endFill=0;strokeWidth=2;fontColor=#FFFFFF;labelBackgroundColor=none;strokeColor=#19FFBA;fontStyle=1;fontFamily=Georgia;fontSize=13;" parent="1" source="EEbd4EJKothGvuQdx9ed-1" target="EEbd4EJKothGvuQdx9ed-3" edge="1">
          <mxGeometry relative="1" as="geometry" />
        </mxCell>
        <mxCell id="EEbd4EJKothGvuQdx9ed-1" value="Яндекс.Маршруты" style="ellipse;whiteSpace=wrap;html=1;strokeWidth=2;labelBackgroundColor=none;strokeColor=#19FFBA;fontColor=#FFFFFF;fillColor=none;fontStyle=1;fontFamily=Georgia;fontSize=13;" parent="1" vertex="1">
          <mxGeometry x="380" y="200" width="140" height="100" as="geometry" />
        </mxCell>
        <mxCell id="Ez_oyxiAYIKRpwW554iw-5" value="" style="edgeStyle=orthogonalEdgeStyle;curved=1;rounded=0;orthogonalLoop=1;jettySize=auto;html=1;labelBackgroundColor=none;endArrow=none;endFill=0;strokeColor=#19FFBA;strokeWidth=2;fontFamily=Georgia;fontSize=13;fontColor=#FFFFFF;entryX=0;entryY=0.5;entryDx=0;entryDy=0;" edge="1" parent="1" source="EEbd4EJKothGvuQdx9ed-2" target="Ez_oyxiAYIKRpwW554iw-4">
          <mxGeometry relative="1" as="geometry" />
        </mxCell>
        <mxCell id="Ez_oyxiAYIKRpwW554iw-8" value="" style="edgeStyle=orthogonalEdgeStyle;curved=1;rounded=0;orthogonalLoop=1;jettySize=auto;html=1;labelBackgroundColor=none;endArrow=none;endFill=0;strokeColor=#19FFBA;strokeWidth=2;fontFamily=Georgia;fontSize=13;fontColor=#FFFFFF;entryX=0;entryY=0.5;entryDx=0;entryDy=0;" edge="1" parent="1" source="EEbd4EJKothGvuQdx9ed-2" target="Ez_oyxiAYIKRpwW554iw-6">
          <mxGeometry relative="1" as="geometry">
            <mxPoint x="750" y="250" as="targetPoint" />
          </mxGeometry>
        </mxCell>
        <mxCell id="EEbd4EJKothGvuQdx9ed-2" value="Логика" style="rounded=1;whiteSpace=wrap;html=1;strokeWidth=2;labelBackgroundColor=none;strokeColor=#19FFBA;fontColor=#FFFFFF;fillColor=none;fontStyle=1;fontFamily=Georgia;fontSize=13;" parent="1" vertex="1">
          <mxGeometry x="550" y="220" width="120" height="60" as="geometry" />
        </mxCell>
        <mxCell id="Ez_oyxiAYIKRpwW554iw-11" value="" style="edgeStyle=orthogonalEdgeStyle;curved=1;rounded=0;orthogonalLoop=1;jettySize=auto;html=1;labelBackgroundColor=none;endArrow=none;endFill=0;strokeColor=#19FFBA;strokeWidth=2;fontFamily=Georgia;fontSize=13;fontColor=#FFFFFF;entryX=0;entryY=0.5;entryDx=0;entryDy=0;" edge="1" parent="1" source="Ez_oyxiAYIKRpwW554iw-4" target="Ez_oyxiAYIKRpwW554iw-10">
          <mxGeometry relative="1" as="geometry" />
        </mxCell>
        <mxCell id="Ez_oyxiAYIKRpwW554iw-4" value="Маршрутная панель" style="rounded=1;whiteSpace=wrap;html=1;strokeWidth=2;labelBackgroundColor=none;strokeColor=#19FFBA;fontColor=#FFFFFF;fillColor=none;fontStyle=1;fontFamily=Georgia;fontSize=13;" vertex="1" parent="1">
          <mxGeometry x="720" y="60" width="120" height="60" as="geometry" />
        </mxCell>
        <mxCell id="Ez_oyxiAYIKRpwW554iw-17" value="" style="edgeStyle=orthogonalEdgeStyle;curved=1;rounded=0;orthogonalLoop=1;jettySize=auto;html=1;labelBackgroundColor=none;endArrow=none;endFill=0;strokeColor=#19FFBA;strokeWidth=2;fontFamily=Georgia;fontSize=13;fontColor=#FFFFFF;entryX=0;entryY=0.5;entryDx=0;entryDy=0;" edge="1" parent="1" source="Ez_oyxiAYIKRpwW554iw-10" target="Ez_oyxiAYIKRpwW554iw-16">
          <mxGeometry relative="1" as="geometry" />
        </mxCell>
        <mxCell id="Ez_oyxiAYIKRpwW554iw-10" value="Выбор режимов (переключение)" style="rounded=1;whiteSpace=wrap;html=1;strokeWidth=2;labelBackgroundColor=none;strokeColor=#19FFBA;fontColor=#FFFFFF;fillColor=none;fontStyle=1;fontFamily=Georgia;fontSize=13;" vertex="1" parent="1">
          <mxGeometry x="880" y="190" width="120" height="60" as="geometry" />
        </mxCell>
        <mxCell id="Ez_oyxiAYIKRpwW554iw-16" value="Мышь" style="rounded=1;whiteSpace=wrap;html=1;strokeWidth=2;labelBackgroundColor=none;strokeColor=#19FFBA;fontColor=#FFFFFF;fillColor=none;fontStyle=1;fontFamily=Georgia;fontSize=13;" vertex="1" parent="1">
          <mxGeometry x="1040" y="145" width="120" height="33" as="geometry" />
        </mxCell>
        <mxCell id="EEbd4EJKothGvuQdx9ed-31" value="" style="edgeStyle=orthogonalEdgeStyle;rounded=0;orthogonalLoop=1;jettySize=auto;html=1;endArrow=none;endFill=0;curved=1;entryX=1;entryY=0.5;entryDx=0;entryDy=0;strokeWidth=2;fontColor=#FFFFFF;labelBackgroundColor=none;strokeColor=#19FFBA;fontStyle=1;fontFamily=Georgia;fontSize=13;" parent="1" source="EEbd4EJKothGvuQdx9ed-3" target="EEbd4EJKothGvuQdx9ed-13" edge="1">
          <mxGeometry relative="1" as="geometry">
            <mxPoint x="134" y="120" as="targetPoint" />
          </mxGeometry>
        </mxCell>
        <mxCell id="EEbd4EJKothGvuQdx9ed-3" value="Интерфейс" style="rounded=1;whiteSpace=wrap;html=1;strokeWidth=2;labelBackgroundColor=none;strokeColor=#19FFBA;fontColor=#FFFFFF;fillColor=none;fontStyle=1;fontFamily=Georgia;fontSize=13;" parent="1" vertex="1">
          <mxGeometry x="200" y="220" width="120" height="60" as="geometry" />
        </mxCell>
        <mxCell id="EEbd4EJKothGvuQdx9ed-99" value="" style="edgeStyle=orthogonalEdgeStyle;curved=1;rounded=0;orthogonalLoop=1;jettySize=auto;html=1;labelBackgroundColor=none;endArrow=none;endFill=0;strokeColor=#19FFBA;strokeWidth=2;fontFamily=Georgia;fontSize=13;fontColor=#FFFFFF;entryX=0;entryY=0.5;entryDx=0;entryDy=0;" parent="1" source="EEbd4EJKothGvuQdx9ed-10" target="EEbd4EJKothGvuQdx9ed-3" edge="1">
          <mxGeometry relative="1" as="geometry">
            <mxPoint x="240" y="330" as="targetPoint" />
          </mxGeometry>
        </mxCell>
        <mxCell id="EEbd4EJKothGvuQdx9ed-153" value="" style="edgeStyle=orthogonalEdgeStyle;curved=1;rounded=0;comic=0;orthogonalLoop=1;jettySize=auto;html=1;labelBackgroundColor=none;endArrow=none;endFill=0;strokeColor=#19FFBA;strokeWidth=2;fontFamily=Georgia;fontSize=13;fontColor=#FFFFFF;entryX=1;entryY=0.5;entryDx=0;entryDy=0;" parent="1" source="EEbd4EJKothGvuQdx9ed-10" target="EEbd4EJKothGvuQdx9ed-129" edge="1">
          <mxGeometry relative="1" as="geometry" />
        </mxCell>
        <mxCell id="EEbd4EJKothGvuQdx9ed-154" value="" style="edgeStyle=orthogonalEdgeStyle;curved=1;rounded=0;comic=0;orthogonalLoop=1;jettySize=auto;html=1;labelBackgroundColor=none;endArrow=none;endFill=0;strokeColor=#19FFBA;strokeWidth=2;fontFamily=Georgia;fontSize=13;fontColor=#FFFFFF;" parent="1" source="EEbd4EJKothGvuQdx9ed-10" target="EEbd4EJKothGvuQdx9ed-131" edge="1">
          <mxGeometry relative="1" as="geometry" />
        </mxCell>
        <mxCell id="EEbd4EJKothGvuQdx9ed-155" value="" style="edgeStyle=orthogonalEdgeStyle;curved=1;rounded=0;comic=0;orthogonalLoop=1;jettySize=auto;html=1;labelBackgroundColor=none;endArrow=none;endFill=0;strokeColor=#19FFBA;strokeWidth=2;fontFamily=Georgia;fontSize=13;fontColor=#FFFFFF;entryX=1;entryY=0.5;entryDx=0;entryDy=0;" parent="1" source="EEbd4EJKothGvuQdx9ed-10" target="EEbd4EJKothGvuQdx9ed-144" edge="1">
          <mxGeometry relative="1" as="geometry" />
        </mxCell>
        <mxCell id="EEbd4EJKothGvuQdx9ed-10" value="Схема-Карта" style="rounded=1;whiteSpace=wrap;html=1;strokeWidth=2;labelBackgroundColor=none;strokeColor=#19FFBA;fontColor=#FFFFFF;fillColor=none;fontStyle=1;fontFamily=Georgia;fontSize=13;" parent="1" vertex="1">
          <mxGeometry x="40" y="430" width="120" height="60" as="geometry" />
        </mxCell>
        <mxCell id="EEbd4EJKothGvuQdx9ed-43" value="" style="edgeStyle=orthogonalEdgeStyle;curved=1;rounded=0;orthogonalLoop=1;jettySize=auto;html=1;labelBackgroundColor=none;endArrow=none;endFill=0;strokeColor=#19FFBA;strokeWidth=2;fontFamily=Georgia;fontSize=13;fontColor=#FFFFFF;entryX=1;entryY=0.5;entryDx=0;entryDy=0;" parent="1" source="EEbd4EJKothGvuQdx9ed-12" target="EEbd4EJKothGvuQdx9ed-42" edge="1">
          <mxGeometry relative="1" as="geometry" />
        </mxCell>
        <mxCell id="EEbd4EJKothGvuQdx9ed-65" value="" style="edgeStyle=orthogonalEdgeStyle;curved=1;rounded=0;orthogonalLoop=1;jettySize=auto;html=1;labelBackgroundColor=none;endArrow=none;endFill=0;strokeColor=#19FFBA;strokeWidth=2;fontFamily=Georgia;fontSize=13;fontColor=#FFFFFF;entryX=1;entryY=0.5;entryDx=0;entryDy=0;" parent="1" source="EEbd4EJKothGvuQdx9ed-42" target="EEbd4EJKothGvuQdx9ed-64" edge="1">
          <mxGeometry relative="1" as="geometry" />
        </mxCell>
        <mxCell id="EEbd4EJKothGvuQdx9ed-67" value="" style="edgeStyle=orthogonalEdgeStyle;curved=1;rounded=0;orthogonalLoop=1;jettySize=auto;html=1;labelBackgroundColor=none;endArrow=none;endFill=0;strokeColor=#19FFBA;strokeWidth=2;fontFamily=Georgia;fontSize=13;fontColor=#FFFFFF;" parent="1" source="EEbd4EJKothGvuQdx9ed-42" target="EEbd4EJKothGvuQdx9ed-66" edge="1">
          <mxGeometry relative="1" as="geometry" />
        </mxCell>
        <mxCell id="EEbd4EJKothGvuQdx9ed-42" value="Время начала поездки" style="rounded=1;whiteSpace=wrap;html=1;strokeWidth=2;labelBackgroundColor=none;strokeColor=#19FFBA;fontColor=#FFFFFF;fillColor=none;fontStyle=1;fontFamily=Georgia;fontSize=13;" parent="1" vertex="1">
          <mxGeometry x="-280" y="-140" width="120" height="60" as="geometry" />
        </mxCell>
        <mxCell id="EEbd4EJKothGvuQdx9ed-66" value="Задать минуты" style="rounded=1;whiteSpace=wrap;html=1;strokeWidth=2;labelBackgroundColor=none;strokeColor=#19FFBA;fontColor=#FFFFFF;fillColor=none;fontStyle=1;fontFamily=Georgia;fontSize=13;" parent="1" vertex="1">
          <mxGeometry x="-440" y="-103.5" width="120" height="30" as="geometry" />
        </mxCell>
        <mxCell id="EEbd4EJKothGvuQdx9ed-64" value="Задать часы" style="rounded=1;whiteSpace=wrap;html=1;strokeWidth=2;labelBackgroundColor=none;strokeColor=#19FFBA;fontColor=#FFFFFF;fillColor=none;fontStyle=1;fontFamily=Georgia;fontSize=13;" parent="1" vertex="1">
          <mxGeometry x="-440" y="-148.5" width="120" height="30" as="geometry" />
        </mxCell>
        <mxCell id="EEbd4EJKothGvuQdx9ed-38" value="" style="edgeStyle=orthogonalEdgeStyle;curved=1;rounded=0;orthogonalLoop=1;jettySize=auto;html=1;labelBackgroundColor=none;endArrow=none;endFill=0;strokeColor=#19FFBA;strokeWidth=2;fontFamily=Georgia;fontSize=13;fontColor=#FFFFFF;entryX=1;entryY=0.5;entryDx=0;entryDy=0;" parent="1" source="EEbd4EJKothGvuQdx9ed-13" target="EEbd4EJKothGvuQdx9ed-37" edge="1">
          <mxGeometry relative="1" as="geometry" />
        </mxCell>
        <mxCell id="EEbd4EJKothGvuQdx9ed-13" value="Шапка" style="rounded=1;whiteSpace=wrap;html=1;strokeWidth=2;labelBackgroundColor=none;strokeColor=#19FFBA;fontColor=#FFFFFF;fillColor=none;fontStyle=1;fontFamily=Georgia;fontSize=13;" parent="1" vertex="1">
          <mxGeometry x="40" y="-170" width="120" height="60" as="geometry" />
        </mxCell>
        <mxCell id="EEbd4EJKothGvuQdx9ed-37" value="Лого &quot;Яндекс&quot;" style="rounded=1;whiteSpace=wrap;html=1;strokeWidth=2;labelBackgroundColor=none;strokeColor=#19FFBA;fontColor=#FFFFFF;fillColor=none;fontStyle=1;fontFamily=Georgia;fontSize=13;" parent="1" vertex="1">
          <mxGeometry x="-120" y="-250" width="120" height="40" as="geometry" />
        </mxCell>
        <mxCell id="EEbd4EJKothGvuQdx9ed-14" value="Footer(подвал)" style="rounded=1;whiteSpace=wrap;html=1;strokeWidth=2;labelBackgroundColor=none;strokeColor=#19FFBA;fontColor=#FFFFFF;fillColor=none;fontStyle=1;fontFamily=Georgia;fontSize=13;" parent="1" vertex="1">
          <mxGeometry x="40" y="630" width="120" height="61" as="geometry" />
        </mxCell>
        <mxCell id="EEbd4EJKothGvuQdx9ed-162" value="" style="edgeStyle=orthogonalEdgeStyle;curved=1;rounded=0;comic=0;orthogonalLoop=1;jettySize=auto;html=1;labelBackgroundColor=none;endArrow=none;endFill=0;strokeColor=#19FFBA;strokeWidth=2;fontFamily=Georgia;fontSize=13;fontColor=#FFFFFF;" parent="1" source="EEbd4EJKothGvuQdx9ed-156" target="EEbd4EJKothGvuQdx9ed-159" edge="1">
          <mxGeometry relative="1" as="geometry" />
        </mxCell>
        <mxCell id="EEbd4EJKothGvuQdx9ed-156" value="Ссылка на &quot;Условия использования&quot;" style="rounded=1;whiteSpace=wrap;html=1;strokeWidth=2;labelBackgroundColor=none;strokeColor=#19FFBA;fontColor=#FFFFFF;fillColor=none;fontStyle=1;fontFamily=Georgia;fontSize=13;" parent="1" vertex="1">
          <mxGeometry x="-330" y="645.16" width="170" height="30.67" as="geometry" />
        </mxCell>
        <mxCell id="EEbd4EJKothGvuQdx9ed-32" value="" style="edgeStyle=orthogonalEdgeStyle;rounded=0;orthogonalLoop=1;jettySize=auto;html=1;endArrow=none;endFill=0;curved=1;entryX=1;entryY=0.5;entryDx=0;entryDy=0;strokeWidth=2;fontColor=#FFFFFF;labelBackgroundColor=none;strokeColor=#19FFBA;fontStyle=1;fontFamily=Georgia;fontSize=13;exitX=0;exitY=0.5;exitDx=0;exitDy=0;" parent="1" source="EEbd4EJKothGvuQdx9ed-3" target="EEbd4EJKothGvuQdx9ed-14" edge="1">
          <mxGeometry relative="1" as="geometry">
            <mxPoint x="210" y="250" as="sourcePoint" />
            <mxPoint x="140" y="260" as="targetPoint" />
          </mxGeometry>
        </mxCell>
        <mxCell id="EEbd4EJKothGvuQdx9ed-41" value="" style="edgeStyle=orthogonalEdgeStyle;curved=1;rounded=0;orthogonalLoop=1;jettySize=auto;html=1;labelBackgroundColor=none;endArrow=none;endFill=0;strokeColor=#19FFBA;strokeWidth=2;fontFamily=Georgia;fontSize=13;fontColor=#FFFFFF;" parent="1" source="EEbd4EJKothGvuQdx9ed-39" target="EEbd4EJKothGvuQdx9ed-13" edge="1">
          <mxGeometry relative="1" as="geometry" />
        </mxCell>
        <mxCell id="EEbd4EJKothGvuQdx9ed-39" value="Лого &quot;Маршруты&quot;" style="rounded=1;whiteSpace=wrap;html=1;strokeWidth=2;labelBackgroundColor=none;strokeColor=#19FFBA;fontColor=#FFFFFF;fillColor=none;fontStyle=1;fontFamily=Georgia;fontSize=13;" parent="1" vertex="1">
          <mxGeometry x="-120" y="-170" width="120" height="40" as="geometry" />
        </mxCell>
        <mxCell id="EEbd4EJKothGvuQdx9ed-103" value="" style="edgeStyle=orthogonalEdgeStyle;curved=1;rounded=0;orthogonalLoop=1;jettySize=auto;html=1;labelBackgroundColor=none;endArrow=none;endFill=0;strokeColor=#19FFBA;strokeWidth=2;fontFamily=Georgia;fontSize=13;fontColor=#FFFFFF;" parent="1" source="EEbd4EJKothGvuQdx9ed-44" target="EEbd4EJKothGvuQdx9ed-12" edge="1">
          <mxGeometry relative="1" as="geometry" />
        </mxCell>
        <mxCell id="EEbd4EJKothGvuQdx9ed-44" value="Откуда" style="rounded=1;whiteSpace=wrap;html=1;strokeWidth=2;labelBackgroundColor=none;strokeColor=#19FFBA;fontColor=#FFFFFF;fillColor=none;fontStyle=1;fontFamily=Georgia;fontSize=13;" parent="1" vertex="1">
          <mxGeometry x="-280" y="-50" width="120" height="30" as="geometry" />
        </mxCell>
        <mxCell id="EEbd4EJKothGvuQdx9ed-45" value="Куда" style="rounded=1;whiteSpace=wrap;html=1;strokeWidth=2;labelBackgroundColor=none;strokeColor=#19FFBA;fontColor=#FFFFFF;fillColor=none;fontStyle=1;fontFamily=Georgia;fontSize=13;" parent="1" vertex="1">
          <mxGeometry x="-280" y="10" width="120" height="30" as="geometry" />
        </mxCell>
        <mxCell id="EEbd4EJKothGvuQdx9ed-46" value="Выбор режима" style="rounded=1;whiteSpace=wrap;html=1;strokeWidth=2;labelBackgroundColor=none;strokeColor=#19FFBA;fontColor=#FFFFFF;fillColor=none;fontStyle=1;fontFamily=Georgia;fontSize=13;" parent="1" vertex="1">
          <mxGeometry x="-280" y="70" width="120" height="60" as="geometry" />
        </mxCell>
        <mxCell id="EEbd4EJKothGvuQdx9ed-102" value="" style="edgeStyle=orthogonalEdgeStyle;curved=1;rounded=0;orthogonalLoop=1;jettySize=auto;html=1;labelBackgroundColor=none;endArrow=none;endFill=0;strokeColor=#19FFBA;strokeWidth=2;fontFamily=Georgia;fontSize=13;fontColor=#FFFFFF;entryX=0;entryY=0.5;entryDx=0;entryDy=0;" parent="1" source="EEbd4EJKothGvuQdx9ed-82" target="EEbd4EJKothGvuQdx9ed-46" edge="1">
          <mxGeometry relative="1" as="geometry" />
        </mxCell>
        <mxCell id="EEbd4EJKothGvuQdx9ed-82" value="Основные режимы" style="rounded=1;whiteSpace=wrap;html=1;strokeWidth=2;labelBackgroundColor=none;strokeColor=#19FFBA;fontColor=#FFFFFF;fillColor=none;fontStyle=1;fontFamily=Georgia;fontSize=13;" parent="1" vertex="1">
          <mxGeometry x="-440" y="-19.5" width="120" height="60" as="geometry" />
        </mxCell>
        <mxCell id="EEbd4EJKothGvuQdx9ed-68" value="Оптимальный" style="rounded=1;whiteSpace=wrap;html=1;strokeWidth=2;labelBackgroundColor=none;strokeColor=#19FFBA;fontColor=#FFFFFF;fillColor=none;fontStyle=1;fontFamily=Georgia;fontSize=13;" parent="1" vertex="1">
          <mxGeometry x="-600" y="-50" width="120" height="28" as="geometry" />
        </mxCell>
        <mxCell id="EEbd4EJKothGvuQdx9ed-61" value="" style="edgeStyle=orthogonalEdgeStyle;curved=1;rounded=0;orthogonalLoop=1;jettySize=auto;html=1;labelBackgroundColor=none;endArrow=none;endFill=0;strokeColor=#19FFBA;strokeWidth=2;fontFamily=Georgia;fontSize=13;fontColor=#FFFFFF;entryX=0;entryY=0.5;entryDx=0;entryDy=0;" parent="1" source="EEbd4EJKothGvuQdx9ed-12" target="EEbd4EJKothGvuQdx9ed-57" edge="1">
          <mxGeometry relative="1" as="geometry">
            <mxPoint x="10" y="-10" as="targetPoint" />
          </mxGeometry>
        </mxCell>
        <mxCell id="EEbd4EJKothGvuQdx9ed-12" value="Поиск" style="rounded=1;whiteSpace=wrap;html=1;strokeWidth=2;labelBackgroundColor=none;strokeColor=#19FFBA;fontColor=#FFFFFF;fillColor=none;fontStyle=1;fontFamily=Georgia;fontSize=13;" parent="1" vertex="1">
          <mxGeometry x="-120" y="-40" width="120" height="60" as="geometry" />
        </mxCell>
        <mxCell id="EEbd4EJKothGvuQdx9ed-53" value="" style="edgeStyle=orthogonalEdgeStyle;curved=1;rounded=0;orthogonalLoop=1;jettySize=auto;html=1;labelBackgroundColor=none;endArrow=none;endFill=0;strokeColor=#19FFBA;strokeWidth=2;fontFamily=Georgia;fontSize=13;fontColor=#FFFFFF;entryX=1;entryY=0.5;entryDx=0;entryDy=0;exitX=0;exitY=0.5;exitDx=0;exitDy=0;" parent="1" source="EEbd4EJKothGvuQdx9ed-12" target="EEbd4EJKothGvuQdx9ed-45" edge="1">
          <mxGeometry relative="1" as="geometry">
            <mxPoint x="-200" as="sourcePoint" />
            <mxPoint x="-270" y="-30" as="targetPoint" />
          </mxGeometry>
        </mxCell>
        <mxCell id="EEbd4EJKothGvuQdx9ed-54" value="" style="edgeStyle=orthogonalEdgeStyle;curved=1;rounded=0;orthogonalLoop=1;jettySize=auto;html=1;labelBackgroundColor=none;endArrow=none;endFill=0;strokeColor=#19FFBA;strokeWidth=2;fontFamily=Georgia;fontSize=13;fontColor=#FFFFFF;entryX=1;entryY=0.5;entryDx=0;entryDy=0;exitX=0;exitY=0.5;exitDx=0;exitDy=0;" parent="1" source="EEbd4EJKothGvuQdx9ed-12" target="EEbd4EJKothGvuQdx9ed-46" edge="1">
          <mxGeometry relative="1" as="geometry">
            <mxPoint x="-180" y="10" as="sourcePoint" />
            <mxPoint x="-260" y="-20" as="targetPoint" />
          </mxGeometry>
        </mxCell>
        <mxCell id="EEbd4EJKothGvuQdx9ed-101" value="" style="edgeStyle=orthogonalEdgeStyle;curved=1;rounded=0;orthogonalLoop=1;jettySize=auto;html=1;labelBackgroundColor=none;endArrow=none;endFill=0;strokeColor=#19FFBA;strokeWidth=2;fontFamily=Georgia;fontSize=13;fontColor=#FFFFFF;entryX=0;entryY=0.5;entryDx=0;entryDy=0;" parent="1" source="EEbd4EJKothGvuQdx9ed-57" target="EEbd4EJKothGvuQdx9ed-3" edge="1">
          <mxGeometry relative="1" as="geometry">
            <mxPoint x="240" y="90.00000000000023" as="targetPoint" />
          </mxGeometry>
        </mxCell>
        <mxCell id="EEbd4EJKothGvuQdx9ed-57" value="Маршрутная панель" style="rounded=1;whiteSpace=wrap;html=1;strokeWidth=2;labelBackgroundColor=none;strokeColor=#19FFBA;fontColor=#FFFFFF;fillColor=none;fontStyle=1;fontFamily=Georgia;fontSize=13;" parent="1" vertex="1">
          <mxGeometry x="40" y="60" width="120" height="60" as="geometry" />
        </mxCell>
        <mxCell id="EEbd4EJKothGvuQdx9ed-63" value="" style="edgeStyle=orthogonalEdgeStyle;curved=1;rounded=0;orthogonalLoop=1;jettySize=auto;html=1;labelBackgroundColor=none;endArrow=none;endFill=0;strokeColor=#19FFBA;strokeWidth=2;fontFamily=Georgia;fontSize=13;fontColor=#FFFFFF;entryX=0;entryY=0.5;entryDx=0;entryDy=0;" parent="1" source="EEbd4EJKothGvuQdx9ed-59" target="EEbd4EJKothGvuQdx9ed-57" edge="1">
          <mxGeometry relative="1" as="geometry">
            <mxPoint x="10" y="190" as="targetPoint" />
          </mxGeometry>
        </mxCell>
        <mxCell id="EEbd4EJKothGvuQdx9ed-59" value="Результат" style="rounded=1;whiteSpace=wrap;html=1;strokeWidth=2;labelBackgroundColor=none;strokeColor=#19FFBA;fontColor=#FFFFFF;fillColor=none;fontStyle=1;fontFamily=Georgia;fontSize=13;" parent="1" vertex="1">
          <mxGeometry x="-120" y="205" width="120" height="60" as="geometry" />
        </mxCell>
        <mxCell id="EEbd4EJKothGvuQdx9ed-120" value="" style="edgeStyle=orthogonalEdgeStyle;curved=1;rounded=0;orthogonalLoop=1;jettySize=auto;html=1;labelBackgroundColor=none;endArrow=none;endFill=0;strokeColor=#19FFBA;strokeWidth=2;fontFamily=Georgia;fontSize=13;fontColor=#FFFFFF;entryX=0;entryY=0.5;entryDx=0;entryDy=0;" parent="1" source="EEbd4EJKothGvuQdx9ed-106" target="EEbd4EJKothGvuQdx9ed-59" edge="1">
          <mxGeometry relative="1" as="geometry">
            <mxPoint x="-80" y="185.00000000000023" as="targetPoint" />
          </mxGeometry>
        </mxCell>
        <mxCell id="EEbd4EJKothGvuQdx9ed-106" value="Время в пути" style="rounded=1;whiteSpace=wrap;html=1;strokeWidth=2;labelBackgroundColor=none;strokeColor=#19FFBA;fontColor=#FFFFFF;fillColor=none;fontStyle=1;fontFamily=Georgia;fontSize=13;" parent="1" vertex="1">
          <mxGeometry x="-280" y="170" width="120" height="60" as="geometry" />
        </mxCell>
        <mxCell id="EEbd4EJKothGvuQdx9ed-86" value="" style="edgeStyle=orthogonalEdgeStyle;curved=1;rounded=0;orthogonalLoop=1;jettySize=auto;html=1;labelBackgroundColor=none;endArrow=none;endFill=0;strokeColor=#19FFBA;strokeWidth=2;fontFamily=Georgia;fontSize=13;fontColor=#FFFFFF;" parent="1" source="EEbd4EJKothGvuQdx9ed-70" target="EEbd4EJKothGvuQdx9ed-82" edge="1">
          <mxGeometry relative="1" as="geometry" />
        </mxCell>
        <mxCell id="EEbd4EJKothGvuQdx9ed-70" value="Быстрый" style="rounded=1;whiteSpace=wrap;html=1;strokeWidth=2;labelBackgroundColor=none;strokeColor=#19FFBA;fontColor=#FFFFFF;fillColor=none;fontStyle=1;fontFamily=Georgia;fontSize=13;" parent="1" vertex="1">
          <mxGeometry x="-600" width="120" height="28" as="geometry" />
        </mxCell>
        <mxCell id="EEbd4EJKothGvuQdx9ed-72" value="Свой" style="rounded=1;whiteSpace=wrap;html=1;strokeWidth=2;labelBackgroundColor=none;strokeColor=#19FFBA;fontColor=#FFFFFF;fillColor=none;fontStyle=1;fontFamily=Georgia;fontSize=13;" parent="1" vertex="1">
          <mxGeometry x="-600" y="50" width="120" height="28" as="geometry" />
        </mxCell>
        <mxCell id="EEbd4EJKothGvuQdx9ed-73" value="Личный авто" style="rounded=1;whiteSpace=wrap;html=1;strokeWidth=2;labelBackgroundColor=none;strokeColor=#19FFBA;fontColor=#FFFFFF;fillColor=none;fontStyle=1;fontFamily=Georgia;fontSize=13;" parent="1" vertex="1">
          <mxGeometry x="-600" y="130" width="120" height="30" as="geometry" />
        </mxCell>
        <mxCell id="EEbd4EJKothGvuQdx9ed-84" value="Доп. режимы" style="rounded=1;whiteSpace=wrap;html=1;strokeWidth=2;labelBackgroundColor=none;strokeColor=#19FFBA;fontColor=#FFFFFF;fillColor=none;fontStyle=1;fontFamily=Georgia;fontSize=13;" parent="1" vertex="1">
          <mxGeometry x="-440" y="196.5" width="120" height="60" as="geometry" />
        </mxCell>
        <mxCell id="EEbd4EJKothGvuQdx9ed-85" value="" style="edgeStyle=orthogonalEdgeStyle;curved=1;rounded=0;orthogonalLoop=1;jettySize=auto;html=1;labelBackgroundColor=none;endArrow=none;endFill=0;strokeColor=#19FFBA;strokeWidth=2;fontFamily=Georgia;fontSize=13;fontColor=#FFFFFF;entryX=1;entryY=0.5;entryDx=0;entryDy=0;exitX=0;exitY=0.5;exitDx=0;exitDy=0;" parent="1" source="EEbd4EJKothGvuQdx9ed-46" target="EEbd4EJKothGvuQdx9ed-84" edge="1">
          <mxGeometry relative="1" as="geometry">
            <mxPoint x="-390" y="100.00000000000023" as="sourcePoint" />
            <mxPoint x="-470" y="148" as="targetPoint" />
          </mxGeometry>
        </mxCell>
        <mxCell id="EEbd4EJKothGvuQdx9ed-87" value="" style="edgeStyle=orthogonalEdgeStyle;curved=1;rounded=0;orthogonalLoop=1;jettySize=auto;html=1;labelBackgroundColor=none;endArrow=none;endFill=0;strokeColor=#19FFBA;strokeWidth=2;fontFamily=Georgia;fontSize=13;fontColor=#FFFFFF;exitX=1;exitY=0.5;exitDx=0;exitDy=0;entryX=0;entryY=0.5;entryDx=0;entryDy=0;" parent="1" source="EEbd4EJKothGvuQdx9ed-68" target="EEbd4EJKothGvuQdx9ed-82" edge="1">
          <mxGeometry relative="1" as="geometry">
            <mxPoint x="-650" y="14" as="sourcePoint" />
            <mxPoint x="-590" y="14" as="targetPoint" />
          </mxGeometry>
        </mxCell>
        <mxCell id="EEbd4EJKothGvuQdx9ed-88" value="" style="edgeStyle=orthogonalEdgeStyle;curved=1;rounded=0;orthogonalLoop=1;jettySize=auto;html=1;labelBackgroundColor=none;endArrow=none;endFill=0;strokeColor=#19FFBA;strokeWidth=2;fontFamily=Georgia;fontSize=13;fontColor=#FFFFFF;exitX=1;exitY=0.5;exitDx=0;exitDy=0;entryX=0;entryY=0.5;entryDx=0;entryDy=0;" parent="1" source="EEbd4EJKothGvuQdx9ed-72" target="EEbd4EJKothGvuQdx9ed-82" edge="1">
          <mxGeometry relative="1" as="geometry">
            <mxPoint x="-640" y="24" as="sourcePoint" />
            <mxPoint x="-580" y="24" as="targetPoint" />
          </mxGeometry>
        </mxCell>
        <mxCell id="EEbd4EJKothGvuQdx9ed-93" value="" style="edgeStyle=orthogonalEdgeStyle;curved=1;rounded=0;orthogonalLoop=1;jettySize=auto;html=1;labelBackgroundColor=none;endArrow=none;endFill=0;strokeColor=#19FFBA;strokeWidth=2;fontFamily=Georgia;fontSize=13;fontColor=#FFFFFF;" parent="1" source="EEbd4EJKothGvuQdx9ed-89" target="EEbd4EJKothGvuQdx9ed-84" edge="1">
          <mxGeometry relative="1" as="geometry" />
        </mxCell>
        <mxCell id="EEbd4EJKothGvuQdx9ed-89" value="Пешком" style="rounded=1;whiteSpace=wrap;html=1;strokeWidth=2;labelBackgroundColor=none;strokeColor=#19FFBA;fontColor=#FFFFFF;fillColor=none;fontStyle=1;fontFamily=Georgia;fontSize=13;" parent="1" vertex="1">
          <mxGeometry x="-600" y="175" width="120" height="30" as="geometry" />
        </mxCell>
        <mxCell id="EEbd4EJKothGvuQdx9ed-90" value="Такси" style="rounded=1;whiteSpace=wrap;html=1;strokeWidth=2;labelBackgroundColor=none;strokeColor=#19FFBA;fontColor=#FFFFFF;fillColor=none;fontStyle=1;fontFamily=Georgia;fontSize=13;" parent="1" vertex="1">
          <mxGeometry x="-600" y="220" width="120" height="30" as="geometry" />
        </mxCell>
        <mxCell id="EEbd4EJKothGvuQdx9ed-91" value="Велосипед" style="rounded=1;whiteSpace=wrap;html=1;strokeWidth=2;labelBackgroundColor=none;strokeColor=#19FFBA;fontColor=#FFFFFF;fillColor=none;fontStyle=1;fontFamily=Georgia;fontSize=13;" parent="1" vertex="1">
          <mxGeometry x="-600" y="260" width="120" height="30" as="geometry" />
        </mxCell>
        <mxCell id="EEbd4EJKothGvuQdx9ed-92" value="Самокат" style="rounded=1;whiteSpace=wrap;html=1;strokeWidth=2;labelBackgroundColor=none;strokeColor=#19FFBA;fontColor=#FFFFFF;fillColor=none;fontStyle=1;fontFamily=Georgia;fontSize=13;" parent="1" vertex="1">
          <mxGeometry x="-600" y="300" width="120" height="30" as="geometry" />
        </mxCell>
        <mxCell id="EEbd4EJKothGvuQdx9ed-94" value="" style="edgeStyle=orthogonalEdgeStyle;curved=1;rounded=0;orthogonalLoop=1;jettySize=auto;html=1;labelBackgroundColor=none;endArrow=none;endFill=0;strokeColor=#19FFBA;strokeWidth=2;fontFamily=Georgia;fontSize=13;fontColor=#FFFFFF;exitX=1;exitY=0.5;exitDx=0;exitDy=0;entryX=0;entryY=0.5;entryDx=0;entryDy=0;" parent="1" source="EEbd4EJKothGvuQdx9ed-73" target="EEbd4EJKothGvuQdx9ed-84" edge="1">
          <mxGeometry relative="1" as="geometry">
            <mxPoint x="-650" y="190" as="sourcePoint" />
            <mxPoint x="-590" y="190" as="targetPoint" />
          </mxGeometry>
        </mxCell>
        <mxCell id="EEbd4EJKothGvuQdx9ed-95" value="" style="edgeStyle=orthogonalEdgeStyle;curved=1;rounded=0;orthogonalLoop=1;jettySize=auto;html=1;labelBackgroundColor=none;endArrow=none;endFill=0;strokeColor=#19FFBA;strokeWidth=2;fontFamily=Georgia;fontSize=13;fontColor=#FFFFFF;exitX=1;exitY=0.5;exitDx=0;exitDy=0;entryX=0;entryY=0.5;entryDx=0;entryDy=0;" parent="1" source="EEbd4EJKothGvuQdx9ed-90" target="EEbd4EJKothGvuQdx9ed-84" edge="1">
          <mxGeometry relative="1" as="geometry">
            <mxPoint x="-640" y="200" as="sourcePoint" />
            <mxPoint x="-580" y="200" as="targetPoint" />
          </mxGeometry>
        </mxCell>
        <mxCell id="EEbd4EJKothGvuQdx9ed-96" value="" style="edgeStyle=orthogonalEdgeStyle;curved=1;rounded=0;orthogonalLoop=1;jettySize=auto;html=1;labelBackgroundColor=none;endArrow=none;endFill=0;strokeColor=#19FFBA;strokeWidth=2;fontFamily=Georgia;fontSize=13;fontColor=#FFFFFF;exitX=1;exitY=0.5;exitDx=0;exitDy=0;entryX=0;entryY=0.5;entryDx=0;entryDy=0;" parent="1" source="EEbd4EJKothGvuQdx9ed-91" target="EEbd4EJKothGvuQdx9ed-84" edge="1">
          <mxGeometry relative="1" as="geometry">
            <mxPoint x="-630" y="210" as="sourcePoint" />
            <mxPoint x="-570" y="210" as="targetPoint" />
          </mxGeometry>
        </mxCell>
        <mxCell id="EEbd4EJKothGvuQdx9ed-97" value="" style="edgeStyle=orthogonalEdgeStyle;curved=1;rounded=0;orthogonalLoop=1;jettySize=auto;html=1;labelBackgroundColor=none;endArrow=none;endFill=0;strokeColor=#19FFBA;strokeWidth=2;fontFamily=Georgia;fontSize=13;fontColor=#FFFFFF;exitX=1;exitY=0.5;exitDx=0;exitDy=0;entryX=0;entryY=0.5;entryDx=0;entryDy=0;" parent="1" source="EEbd4EJKothGvuQdx9ed-92" target="EEbd4EJKothGvuQdx9ed-84" edge="1">
          <mxGeometry relative="1" as="geometry">
            <mxPoint x="-620" y="220" as="sourcePoint" />
            <mxPoint x="-560" y="220" as="targetPoint" />
          </mxGeometry>
        </mxCell>
        <mxCell id="EEbd4EJKothGvuQdx9ed-122" value="" style="edgeStyle=orthogonalEdgeStyle;curved=1;rounded=0;orthogonalLoop=1;jettySize=auto;html=1;labelBackgroundColor=none;endArrow=none;endFill=0;strokeColor=#19FFBA;strokeWidth=2;fontFamily=Georgia;fontSize=13;fontColor=#FFFFFF;entryX=0;entryY=0.5;entryDx=0;entryDy=0;" parent="1" source="EEbd4EJKothGvuQdx9ed-109" target="EEbd4EJKothGvuQdx9ed-59" edge="1">
          <mxGeometry relative="1" as="geometry">
            <mxPoint x="-80" y="285" as="targetPoint" />
          </mxGeometry>
        </mxCell>
        <mxCell id="EEbd4EJKothGvuQdx9ed-124" value="" style="edgeStyle=orthogonalEdgeStyle;curved=1;rounded=0;orthogonalLoop=1;jettySize=auto;html=1;labelBackgroundColor=none;endArrow=none;endFill=0;strokeColor=#19FFBA;strokeWidth=2;fontFamily=Georgia;fontSize=13;fontColor=#FFFFFF;" parent="1" source="EEbd4EJKothGvuQdx9ed-109" target="EEbd4EJKothGvuQdx9ed-123" edge="1">
          <mxGeometry relative="1" as="geometry" />
        </mxCell>
        <mxCell id="EEbd4EJKothGvuQdx9ed-109" value="Доп. информация для режима &quot;такси&quot;" style="rounded=1;whiteSpace=wrap;html=1;strokeWidth=2;labelBackgroundColor=none;strokeColor=#19FFBA;fontColor=#FFFFFF;fillColor=none;fontStyle=1;fontFamily=Georgia;fontSize=13;" parent="1" vertex="1">
          <mxGeometry x="-280" y="270" width="120" height="60" as="geometry" />
        </mxCell>
        <mxCell id="EEbd4EJKothGvuQdx9ed-123" value="Примерная стоимость" style="rounded=1;whiteSpace=wrap;html=1;strokeWidth=2;labelBackgroundColor=none;strokeColor=#19FFBA;fontColor=#FFFFFF;fillColor=none;fontStyle=1;fontFamily=Georgia;fontSize=13;" parent="1" vertex="1">
          <mxGeometry x="-440" y="285" width="120" height="30" as="geometry" />
        </mxCell>
        <mxCell id="EEbd4EJKothGvuQdx9ed-127" value="" style="edgeStyle=orthogonalEdgeStyle;curved=1;rounded=0;orthogonalLoop=1;jettySize=auto;html=1;labelBackgroundColor=none;endArrow=none;endFill=0;strokeColor=#19FFBA;strokeWidth=2;fontFamily=Georgia;fontSize=13;fontColor=#FFFFFF;entryX=0;entryY=0.5;entryDx=0;entryDy=0;" parent="1" source="EEbd4EJKothGvuQdx9ed-125" target="EEbd4EJKothGvuQdx9ed-109" edge="1">
          <mxGeometry relative="1" as="geometry">
            <mxPoint x="-240" y="345" as="targetPoint" />
          </mxGeometry>
        </mxCell>
        <mxCell id="EEbd4EJKothGvuQdx9ed-125" value="Вызов такси" style="rounded=1;whiteSpace=wrap;html=1;strokeWidth=2;labelBackgroundColor=none;strokeColor=#19FFBA;fontColor=#FFFFFF;fillColor=none;fontStyle=1;fontFamily=Georgia;fontSize=13;" parent="1" vertex="1">
          <mxGeometry x="-440" y="330" width="120" height="30" as="geometry" />
        </mxCell>
        <mxCell id="EEbd4EJKothGvuQdx9ed-129" value="Отрисовка&amp;nbsp; основной схемы города" style="rounded=1;whiteSpace=wrap;html=1;strokeWidth=2;labelBackgroundColor=none;strokeColor=#19FFBA;fontColor=#FFFFFF;fillColor=none;fontStyle=1;fontFamily=Georgia;fontSize=13;" parent="1" vertex="1">
          <mxGeometry x="-160" y="350" width="160" height="40" as="geometry" />
        </mxCell>
        <mxCell id="EEbd4EJKothGvuQdx9ed-149" value="" style="edgeStyle=orthogonalEdgeStyle;curved=1;rounded=0;orthogonalLoop=1;jettySize=auto;html=1;labelBackgroundColor=none;endArrow=none;endFill=0;strokeColor=#19FFBA;strokeWidth=2;fontFamily=Georgia;fontSize=13;fontColor=#FFFFFF;entryX=1;entryY=0.5;entryDx=0;entryDy=0;comic=1;" parent="1" source="EEbd4EJKothGvuQdx9ed-131" target="EEbd4EJKothGvuQdx9ed-145" edge="1">
          <mxGeometry relative="1" as="geometry" />
        </mxCell>
        <mxCell id="EEbd4EJKothGvuQdx9ed-150" value="" style="edgeStyle=orthogonalEdgeStyle;curved=1;rounded=0;orthogonalLoop=1;jettySize=auto;html=1;labelBackgroundColor=none;endArrow=none;endFill=0;strokeColor=#19FFBA;strokeWidth=2;fontFamily=Georgia;fontSize=13;fontColor=#FFFFFF;comic=1;" parent="1" source="EEbd4EJKothGvuQdx9ed-131" target="EEbd4EJKothGvuQdx9ed-147" edge="1">
          <mxGeometry relative="1" as="geometry" />
        </mxCell>
        <mxCell id="EEbd4EJKothGvuQdx9ed-131" value="Виды наложений на основную схему" style="rounded=1;whiteSpace=wrap;html=1;strokeWidth=2;labelBackgroundColor=none;strokeColor=#19FFBA;fontColor=#FFFFFF;fillColor=none;fontStyle=1;fontFamily=Georgia;fontSize=13;" parent="1" vertex="1">
          <mxGeometry x="-120" y="430" width="120" height="60" as="geometry" />
        </mxCell>
        <mxCell id="EEbd4EJKothGvuQdx9ed-145" value="Только точка &quot;А&quot;" style="rounded=1;whiteSpace=wrap;html=1;strokeWidth=2;labelBackgroundColor=none;strokeColor=#19FFBA;fontColor=#FFFFFF;fillColor=none;fontStyle=1;fontFamily=Georgia;fontSize=13;" parent="1" vertex="1">
          <mxGeometry x="-280" y="380" width="120" height="40" as="geometry" />
        </mxCell>
        <mxCell id="EEbd4EJKothGvuQdx9ed-144" value="Блок регулировки маштабирования" style="rounded=1;whiteSpace=wrap;html=1;strokeWidth=2;labelBackgroundColor=none;strokeColor=#19FFBA;fontColor=#FFFFFF;fillColor=none;fontStyle=1;fontFamily=Georgia;fontSize=13;" parent="1" vertex="1">
          <mxGeometry x="-120" y="530" width="120" height="60" as="geometry" />
        </mxCell>
        <mxCell id="EEbd4EJKothGvuQdx9ed-147" value="Только точка &quot;Б&quot;" style="rounded=1;whiteSpace=wrap;html=1;strokeWidth=2;labelBackgroundColor=none;strokeColor=#19FFBA;fontColor=#FFFFFF;fillColor=none;fontStyle=1;fontFamily=Georgia;fontSize=13;" parent="1" vertex="1">
          <mxGeometry x="-280" y="440" width="120" height="40" as="geometry" />
        </mxCell>
        <mxCell id="EEbd4EJKothGvuQdx9ed-152" value="" style="edgeStyle=orthogonalEdgeStyle;curved=1;rounded=0;orthogonalLoop=1;jettySize=auto;html=1;labelBackgroundColor=none;endArrow=none;endFill=0;strokeColor=#19FFBA;strokeWidth=2;fontFamily=Georgia;fontSize=13;fontColor=#FFFFFF;entryX=0;entryY=0.5;entryDx=0;entryDy=0;comic=1;" parent="1" source="EEbd4EJKothGvuQdx9ed-148" target="EEbd4EJKothGvuQdx9ed-131" edge="1">
          <mxGeometry relative="1" as="geometry">
            <mxPoint x="-80" y="520" as="targetPoint" />
          </mxGeometry>
        </mxCell>
        <mxCell id="EEbd4EJKothGvuQdx9ed-148" value="Проложенный маршрут" style="rounded=1;whiteSpace=wrap;html=1;strokeWidth=2;labelBackgroundColor=none;strokeColor=#19FFBA;fontColor=#FFFFFF;fillColor=none;fontStyle=1;fontFamily=Georgia;fontSize=13;" parent="1" vertex="1">
          <mxGeometry x="-280" y="500" width="120" height="40" as="geometry" />
        </mxCell>
        <mxCell id="EEbd4EJKothGvuQdx9ed-161" value="" style="edgeStyle=orthogonalEdgeStyle;curved=1;rounded=0;comic=0;orthogonalLoop=1;jettySize=auto;html=1;labelBackgroundColor=none;endArrow=none;endFill=0;strokeColor=#19FFBA;strokeWidth=2;fontFamily=Georgia;fontSize=13;fontColor=#FFFFFF;entryX=0;entryY=0.5;entryDx=0;entryDy=0;" parent="1" source="EEbd4EJKothGvuQdx9ed-159" target="EEbd4EJKothGvuQdx9ed-14" edge="1">
          <mxGeometry relative="1" as="geometry">
            <mxPoint x="80" y="695.335" as="targetPoint" />
          </mxGeometry>
        </mxCell>
        <mxCell id="EEbd4EJKothGvuQdx9ed-159" value="Копирайт" style="rounded=1;whiteSpace=wrap;html=1;strokeWidth=2;labelBackgroundColor=none;strokeColor=#19FFBA;fontColor=#FFFFFF;fillColor=none;fontStyle=1;fontFamily=Georgia;fontSize=13;" parent="1" vertex="1">
          <mxGeometry x="-120" y="630" width="120" height="60" as="geometry" />
        </mxCell>
        <mxCell id="Ez_oyxiAYIKRpwW554iw-3" value="" style="edgeStyle=orthogonalEdgeStyle;curved=1;rounded=0;orthogonalLoop=1;jettySize=auto;html=1;labelBackgroundColor=none;endArrow=none;endFill=0;strokeColor=#19FFBA;strokeWidth=2;fontFamily=Georgia;fontSize=13;fontColor=#FFFFFF;entryX=0;entryY=0.5;entryDx=0;entryDy=0;" edge="1" parent="1" source="Ez_oyxiAYIKRpwW554iw-1" target="EEbd4EJKothGvuQdx9ed-84">
          <mxGeometry relative="1" as="geometry" />
        </mxCell>
        <mxCell id="Ez_oyxiAYIKRpwW554iw-1" value="Каршеринг" style="rounded=1;whiteSpace=wrap;html=1;strokeWidth=2;labelBackgroundColor=none;strokeColor=#19FFBA;fontColor=#FFFFFF;fillColor=none;fontStyle=1;fontFamily=Georgia;fontSize=13;" vertex="1" parent="1">
          <mxGeometry x="-600" y="340" width="120" height="30" as="geometry" />
        </mxCell>
        <mxCell id="Ez_oyxiAYIKRpwW554iw-43" value="" style="edgeStyle=orthogonalEdgeStyle;curved=1;rounded=0;orthogonalLoop=1;jettySize=auto;html=1;labelBackgroundColor=none;endArrow=none;endFill=0;strokeColor=#19FFBA;strokeWidth=2;fontFamily=Georgia;fontSize=13;fontColor=#FFFFFF;" edge="1" parent="1" source="Ez_oyxiAYIKRpwW554iw-6" target="Ez_oyxiAYIKRpwW554iw-42">
          <mxGeometry relative="1" as="geometry" />
        </mxCell>
        <mxCell id="Ez_oyxiAYIKRpwW554iw-45" value="" style="edgeStyle=orthogonalEdgeStyle;curved=1;rounded=0;orthogonalLoop=1;jettySize=auto;html=1;labelBackgroundColor=none;endArrow=none;endFill=0;strokeColor=#19FFBA;strokeWidth=2;fontFamily=Georgia;fontSize=13;fontColor=#FFFFFF;" edge="1" parent="1" source="Ez_oyxiAYIKRpwW554iw-6" target="Ez_oyxiAYIKRpwW554iw-44">
          <mxGeometry relative="1" as="geometry" />
        </mxCell>
        <mxCell id="Ez_oyxiAYIKRpwW554iw-6" value="Схема-Карта" style="rounded=1;whiteSpace=wrap;html=1;strokeWidth=2;labelBackgroundColor=none;strokeColor=#19FFBA;fontColor=#FFFFFF;fillColor=none;fontStyle=1;fontFamily=Georgia;fontSize=13;" vertex="1" parent="1">
          <mxGeometry x="720" y="430" width="120" height="60" as="geometry" />
        </mxCell>
        <mxCell id="Ez_oyxiAYIKRpwW554iw-44" value="Маштабирование" style="rounded=1;whiteSpace=wrap;html=1;strokeWidth=2;labelBackgroundColor=none;strokeColor=#19FFBA;fontColor=#FFFFFF;fillColor=none;fontStyle=1;fontFamily=Georgia;fontSize=13;" vertex="1" parent="1">
          <mxGeometry x="880" y="490" width="140" height="60" as="geometry" />
        </mxCell>
        <mxCell id="Ez_oyxiAYIKRpwW554iw-42" value="Перемещение" style="rounded=1;whiteSpace=wrap;html=1;strokeWidth=2;labelBackgroundColor=none;strokeColor=#19FFBA;fontColor=#FFFFFF;fillColor=none;fontStyle=1;fontFamily=Georgia;fontSize=13;" vertex="1" parent="1">
          <mxGeometry x="880" y="370" width="140" height="60" as="geometry" />
        </mxCell>
        <mxCell id="Ez_oyxiAYIKRpwW554iw-15" value="" style="edgeStyle=orthogonalEdgeStyle;curved=1;rounded=0;orthogonalLoop=1;jettySize=auto;html=1;labelBackgroundColor=none;endArrow=none;endFill=0;strokeColor=#19FFBA;strokeWidth=2;fontFamily=Georgia;fontSize=13;fontColor=#FFFFFF;entryX=1;entryY=0.5;entryDx=0;entryDy=0;" edge="1" parent="1" source="Ez_oyxiAYIKRpwW554iw-13" target="Ez_oyxiAYIKRpwW554iw-4">
          <mxGeometry relative="1" as="geometry">
            <mxPoint x="800" y="-35" as="targetPoint" />
          </mxGeometry>
        </mxCell>
        <mxCell id="Ez_oyxiAYIKRpwW554iw-27" value="" style="edgeStyle=orthogonalEdgeStyle;curved=1;rounded=0;orthogonalLoop=1;jettySize=auto;html=1;labelBackgroundColor=none;endArrow=none;endFill=0;strokeColor=#19FFBA;strokeWidth=2;fontFamily=Georgia;fontSize=13;fontColor=#FFFFFF;" edge="1" parent="1" source="Ez_oyxiAYIKRpwW554iw-13" target="Ez_oyxiAYIKRpwW554iw-26">
          <mxGeometry relative="1" as="geometry" />
        </mxCell>
        <mxCell id="Ez_oyxiAYIKRpwW554iw-13" value="Поля ввода&amp;nbsp;" style="rounded=1;whiteSpace=wrap;html=1;strokeWidth=2;labelBackgroundColor=none;strokeColor=#19FFBA;fontColor=#FFFFFF;fillColor=none;fontStyle=1;fontFamily=Georgia;fontSize=13;" vertex="1" parent="1">
          <mxGeometry x="880" y="-65" width="120" height="60" as="geometry" />
        </mxCell>
        <mxCell id="Ez_oyxiAYIKRpwW554iw-32" value="" style="edgeStyle=orthogonalEdgeStyle;curved=1;rounded=0;orthogonalLoop=1;jettySize=auto;html=1;labelBackgroundColor=none;endArrow=none;endFill=0;strokeColor=#19FFBA;strokeWidth=2;fontFamily=Georgia;fontSize=13;fontColor=#FFFFFF;entryX=0;entryY=0.5;entryDx=0;entryDy=0;" edge="1" parent="1" source="Ez_oyxiAYIKRpwW554iw-26" target="Ez_oyxiAYIKRpwW554iw-31">
          <mxGeometry relative="1" as="geometry" />
        </mxCell>
        <mxCell id="Ez_oyxiAYIKRpwW554iw-26" value="Ввод" style="rounded=1;whiteSpace=wrap;html=1;strokeWidth=2;labelBackgroundColor=none;strokeColor=#19FFBA;fontColor=#FFFFFF;fillColor=none;fontStyle=1;fontFamily=Georgia;fontSize=13;" vertex="1" parent="1">
          <mxGeometry x="1040" y="-118.5" width="120" height="60" as="geometry" />
        </mxCell>
        <mxCell id="Ez_oyxiAYIKRpwW554iw-31" value="Ввести полное название адреса" style="rounded=1;whiteSpace=wrap;html=1;strokeWidth=2;labelBackgroundColor=none;strokeColor=#19FFBA;fontColor=#FFFFFF;fillColor=none;fontStyle=1;fontFamily=Georgia;fontSize=13;" vertex="1" parent="1">
          <mxGeometry x="1200" y="-160" width="150" height="51.5" as="geometry" />
        </mxCell>
        <mxCell id="Ez_oyxiAYIKRpwW554iw-25" value="" style="edgeStyle=orthogonalEdgeStyle;curved=1;rounded=0;orthogonalLoop=1;jettySize=auto;html=1;labelBackgroundColor=none;endArrow=none;endFill=0;strokeColor=#19FFBA;strokeWidth=2;fontFamily=Georgia;fontSize=13;fontColor=#FFFFFF;entryX=1;entryY=0.5;entryDx=0;entryDy=0;" edge="1" parent="1" source="Ez_oyxiAYIKRpwW554iw-18" target="Ez_oyxiAYIKRpwW554iw-10">
          <mxGeometry relative="1" as="geometry">
            <mxPoint x="960" y="280" as="targetPoint" />
          </mxGeometry>
        </mxCell>
        <mxCell id="Ez_oyxiAYIKRpwW554iw-18" value="Клавиатура" style="rounded=1;whiteSpace=wrap;html=1;strokeWidth=2;labelBackgroundColor=none;strokeColor=#19FFBA;fontColor=#FFFFFF;fillColor=none;fontStyle=1;fontFamily=Georgia;fontSize=13;" vertex="1" parent="1">
          <mxGeometry x="1040" y="265" width="120" height="30" as="geometry" />
        </mxCell>
        <mxCell id="Ez_oyxiAYIKRpwW554iw-30" value="" style="edgeStyle=orthogonalEdgeStyle;curved=1;rounded=0;orthogonalLoop=1;jettySize=auto;html=1;labelBackgroundColor=none;endArrow=none;endFill=0;strokeColor=#19FFBA;strokeWidth=2;fontFamily=Georgia;fontSize=13;fontColor=#FFFFFF;entryX=1;entryY=0.5;entryDx=0;entryDy=0;" edge="1" parent="1" source="Ez_oyxiAYIKRpwW554iw-28" target="Ez_oyxiAYIKRpwW554iw-13">
          <mxGeometry relative="1" as="geometry">
            <mxPoint x="960" y="14" as="targetPoint" />
          </mxGeometry>
        </mxCell>
        <mxCell id="Ez_oyxiAYIKRpwW554iw-38" value="" style="edgeStyle=orthogonalEdgeStyle;curved=1;rounded=0;orthogonalLoop=1;jettySize=auto;html=1;labelBackgroundColor=none;endArrow=none;endFill=0;strokeColor=#19FFBA;strokeWidth=2;fontFamily=Georgia;fontSize=13;fontColor=#FFFFFF;" edge="1" parent="1" source="Ez_oyxiAYIKRpwW554iw-28" target="Ez_oyxiAYIKRpwW554iw-37">
          <mxGeometry relative="1" as="geometry" />
        </mxCell>
        <mxCell id="Ez_oyxiAYIKRpwW554iw-28" value="Очистка" style="rounded=1;whiteSpace=wrap;html=1;strokeWidth=2;labelBackgroundColor=none;strokeColor=#19FFBA;fontColor=#FFFFFF;fillColor=none;fontStyle=1;fontFamily=Georgia;fontSize=13;" vertex="1" parent="1">
          <mxGeometry x="1040" width="120" height="60" as="geometry" />
        </mxCell>
        <mxCell id="Ez_oyxiAYIKRpwW554iw-37" value="Мышь" style="rounded=1;whiteSpace=wrap;html=1;strokeWidth=2;labelBackgroundColor=none;strokeColor=#19FFBA;fontColor=#FFFFFF;fillColor=none;fontStyle=1;fontFamily=Georgia;fontSize=13;" vertex="1" parent="1">
          <mxGeometry x="1200" y="-20" width="120" height="32" as="geometry" />
        </mxCell>
        <mxCell id="Ez_oyxiAYIKRpwW554iw-36" value="" style="edgeStyle=orthogonalEdgeStyle;curved=1;rounded=0;orthogonalLoop=1;jettySize=auto;html=1;labelBackgroundColor=none;endArrow=none;endFill=0;strokeColor=#19FFBA;strokeWidth=2;fontFamily=Georgia;fontSize=13;fontColor=#FFFFFF;entryX=1;entryY=0.5;entryDx=0;entryDy=0;" edge="1" parent="1" source="Ez_oyxiAYIKRpwW554iw-33" target="Ez_oyxiAYIKRpwW554iw-26">
          <mxGeometry relative="1" as="geometry">
            <mxPoint x="1120" y="-43.5" as="targetPoint" />
          </mxGeometry>
        </mxCell>
        <mxCell id="Ez_oyxiAYIKRpwW554iw-33" value="Поиск по саджесту" style="rounded=1;whiteSpace=wrap;html=1;strokeWidth=2;labelBackgroundColor=none;strokeColor=#19FFBA;fontColor=#FFFFFF;fillColor=none;fontStyle=1;fontFamily=Georgia;fontSize=13;" vertex="1" parent="1">
          <mxGeometry x="1200" y="-80" width="150" height="43" as="geometry" />
        </mxCell>
        <mxCell id="Ez_oyxiAYIKRpwW554iw-41" value="" style="edgeStyle=orthogonalEdgeStyle;curved=1;rounded=0;orthogonalLoop=1;jettySize=auto;html=1;labelBackgroundColor=none;endArrow=none;endFill=0;strokeColor=#19FFBA;strokeWidth=2;fontFamily=Georgia;fontSize=13;fontColor=#FFFFFF;entryX=1;entryY=0.5;entryDx=0;entryDy=0;" edge="1" parent="1" source="Ez_oyxiAYIKRpwW554iw-39" target="Ez_oyxiAYIKRpwW554iw-28">
          <mxGeometry relative="1" as="geometry">
            <mxPoint x="1120" y="62.00000000000023" as="targetPoint" />
          </mxGeometry>
        </mxCell>
        <mxCell id="Ez_oyxiAYIKRpwW554iw-39" value="Клавиатура" style="rounded=1;whiteSpace=wrap;html=1;strokeWidth=2;labelBackgroundColor=none;strokeColor=#19FFBA;fontColor=#FFFFFF;fillColor=none;fontStyle=1;fontFamily=Georgia;fontSize=13;" vertex="1" parent="1">
          <mxGeometry x="1200" y="46" width="120" height="32" as="geometry" />
        </mxCell>
        <mxCell id="Ez_oyxiAYIKRpwW554iw-48" value="" style="edgeStyle=orthogonalEdgeStyle;curved=1;rounded=0;orthogonalLoop=1;jettySize=auto;html=1;labelBackgroundColor=none;endArrow=none;endFill=0;strokeColor=#19FFBA;strokeWidth=2;fontFamily=Georgia;fontSize=13;fontColor=#FFFFFF;" edge="1" parent="1" source="Ez_oyxiAYIKRpwW554iw-46" target="Ez_oyxiAYIKRpwW554iw-42">
          <mxGeometry relative="1" as="geometry" />
        </mxCell>
        <mxCell id="Ez_oyxiAYIKRpwW554iw-46" value="Мышь" style="rounded=1;whiteSpace=wrap;html=1;strokeWidth=2;labelBackgroundColor=none;strokeColor=#19FFBA;fontColor=#FFFFFF;fillColor=none;fontStyle=1;fontFamily=Georgia;fontSize=13;" vertex="1" parent="1">
          <mxGeometry x="1070" y="360" width="120" height="32" as="geometry" />
        </mxCell>
        <mxCell id="Ez_oyxiAYIKRpwW554iw-50" value="" style="edgeStyle=orthogonalEdgeStyle;curved=1;rounded=0;orthogonalLoop=1;jettySize=auto;html=1;labelBackgroundColor=none;endArrow=none;endFill=0;strokeColor=#19FFBA;strokeWidth=2;fontFamily=Georgia;fontSize=13;fontColor=#FFFFFF;entryX=1;entryY=0.5;entryDx=0;entryDy=0;" edge="1" parent="1" source="Ez_oyxiAYIKRpwW554iw-47" target="Ez_oyxiAYIKRpwW554iw-42">
          <mxGeometry relative="1" as="geometry">
            <mxPoint x="990" y="442" as="targetPoint" />
          </mxGeometry>
        </mxCell>
        <mxCell id="Ez_oyxiAYIKRpwW554iw-47" value="Клавиатура" style="rounded=1;whiteSpace=wrap;html=1;strokeWidth=2;labelBackgroundColor=none;strokeColor=#19FFBA;fontColor=#FFFFFF;fillColor=none;fontStyle=1;fontFamily=Georgia;fontSize=13;" vertex="1" parent="1">
          <mxGeometry x="1070" y="408" width="120" height="32" as="geometry" />
        </mxCell>
        <mxCell id="Ez_oyxiAYIKRpwW554iw-53" value="" style="edgeStyle=orthogonalEdgeStyle;curved=1;rounded=0;orthogonalLoop=1;jettySize=auto;html=1;labelBackgroundColor=none;endArrow=none;endFill=0;strokeColor=#19FFBA;strokeWidth=2;fontFamily=Georgia;fontSize=13;fontColor=#FFFFFF;" edge="1" parent="1" source="Ez_oyxiAYIKRpwW554iw-51" target="Ez_oyxiAYIKRpwW554iw-44">
          <mxGeometry relative="1" as="geometry" />
        </mxCell>
        <mxCell id="Ez_oyxiAYIKRpwW554iw-51" value="Скрол мыши" style="rounded=1;whiteSpace=wrap;html=1;strokeWidth=2;labelBackgroundColor=none;strokeColor=#19FFBA;fontColor=#FFFFFF;fillColor=none;fontStyle=1;fontFamily=Georgia;fontSize=13;" vertex="1" parent="1">
          <mxGeometry x="1070" y="480" width="120" height="32" as="geometry" />
        </mxCell>
        <mxCell id="Ez_oyxiAYIKRpwW554iw-54" value="" style="edgeStyle=orthogonalEdgeStyle;curved=1;rounded=0;orthogonalLoop=1;jettySize=auto;html=1;labelBackgroundColor=none;endArrow=none;endFill=0;strokeColor=#19FFBA;strokeWidth=2;fontFamily=Georgia;fontSize=13;fontColor=#FFFFFF;exitX=0;exitY=0.5;exitDx=0;exitDy=0;entryX=1;entryY=0.5;entryDx=0;entryDy=0;" edge="1" parent="1" source="Ez_oyxiAYIKRpwW554iw-55" target="Ez_oyxiAYIKRpwW554iw-44">
          <mxGeometry relative="1" as="geometry" />
        </mxCell>
        <mxCell id="Ez_oyxiAYIKRpwW554iw-56" value="" style="edgeStyle=orthogonalEdgeStyle;curved=1;rounded=0;orthogonalLoop=1;jettySize=auto;html=1;labelBackgroundColor=none;endArrow=none;endFill=0;strokeColor=#19FFBA;strokeWidth=2;fontFamily=Georgia;fontSize=13;fontColor=#FFFFFF;" edge="1" parent="1" source="Ez_oyxiAYIKRpwW554iw-52" target="Ez_oyxiAYIKRpwW554iw-44">
          <mxGeometry relative="1" as="geometry" />
        </mxCell>
        <mxCell id="Ez_oyxiAYIKRpwW554iw-52" value="Жесты" style="rounded=1;whiteSpace=wrap;html=1;strokeWidth=2;labelBackgroundColor=none;strokeColor=#19FFBA;fontColor=#FFFFFF;fillColor=none;fontStyle=1;fontFamily=Georgia;fontSize=13;" vertex="1" parent="1">
          <mxGeometry x="1070" y="528" width="120" height="32" as="geometry" />
        </mxCell>
        <mxCell id="Ez_oyxiAYIKRpwW554iw-55" value="Кнопки блока управления маштабом" style="rounded=1;whiteSpace=wrap;html=1;strokeWidth=2;labelBackgroundColor=none;strokeColor=#19FFBA;fontColor=#FFFFFF;fillColor=none;fontStyle=1;fontFamily=Georgia;fontSize=13;" vertex="1" parent="1">
          <mxGeometry x="1070" y="569" width="120" height="61" as="geometry" />
        </mxCell>
      </root>
    </mxGraphModel>
  </diagram>
</mxfile>
